{"title":"Snake Eyes 1998 DVDrip English Klam","uid":12242441,"size":1643216430,"categoryP":"video","categoryS":"movies","magnet":"?xt=urn:btih:086fcd1e317c04cdfcacc5820da340b252cc0e7a&amp;dn=Snake+Eyes+1998+DVDrip+English+Klam&amp;tr=udp%3A%2F%2Ftracker.openbittorrent.com%3A80&amp;tr=udp%3A%2F%2Fopen.demonii.com%3A1337&amp;tr=udp%3A%2F%2Ftracker.coppersurfer.tk%3A6969&amp;tr=udp%3A%2F%2Fexodus.desync.com%3A6969","seeders":1,"leechers":1,"uploader":"Klambake","files":6,"time":1439816707,"description":" &lt;a href=&quot;http://i.imgur.com/cciYTBX.jpg&quot; rel=&quot;nofollow&quot; target=&quot;_NEW&quot;&gt;http://i.imgur.com/cciYTBX.jpg&lt;/a&gt;\n\nWith: Nicolas Cage, Gary Sinise and Carla Gugino\n\nIn een casino in Atlantic City vindt een belangrijke bokswedstrijd plaats. Midden in het gevecht worden er ineens schoten gelost, en blijkt een lid van de overheid vermoord te zijn. De agent Rick Santoro gaat op onderzoek uit.\n\nA shady police detective finds himself in the middle of a murder conspiracy at an important boxing match in an Atlantic City casino.\n &lt;a href=&quot;\nhttp://www.imdb.com/title/tt0120832&quot; rel=&quot;nofollow&quot; target=&quot;_NEW&quot;&gt;\nhttp://www.imdb.com/title/tt0120832&lt;/a&gt;\n\n--------------------- Dutch Friends 4ever ---------------------\n---------------------------------------------------------------\n- Bezoek ook eens mijn vrienden op: &lt;a href=&quot; http://www.Film-Test.nl&quot; rel=&quot;nofollow&quot; target=&quot;_NEW&quot;&gt; http://www.Film-Test.nl&lt;/a&gt; --\n----- voor mijn Nederlandse Sync. ondertitels ---- en meer ----\n------- http://www.Film-Test.nl ---- Over Films en meer -------\n---------------------------------------------------------------\n &lt;a href=&quot;\nhttp://i.imgur.com/YcAfPe1.jpg&quot; rel=&quot;nofollow&quot; target=&quot;_NEW&quot;&gt;\nhttp://i.imgur.com/YcAfPe1.jpg&lt;/a&gt; &lt;a href=&quot;\nhttp://i.imgur.com/K1pelHQ.jpg&quot; rel=&quot;nofollow&quot; target=&quot;_NEW&quot;&gt;\nhttp://i.imgur.com/K1pelHQ.jpg&lt;/a&gt; &lt;a href=&quot;\nhttp://i.imgur.com/BEcfTHX.jpg&quot; rel=&quot;nofollow&quot; target=&quot;_NEW&quot;&gt;\nhttp://i.imgur.com/BEcfTHX.jpg&lt;/a&gt;\n\nGeneral:\n\nComplete name                            : Snake EyesSnake Eyes.avi\nFormat                                   : AVI\nFormat/Info                              : Audio Video Interleave\nFile size                                : 1.53 GiB\nDuration                                 : 1h 34mn\nOverall bit rate                         : 2 318 Kbps\n\nVideo:\n\nFormat                                   : MPEG-4 Visual\nFormat profile                           : Simple@L3\nFormat settings, BVOP                    : No\nFormat settings, QPel                    : No\nFormat settings, GMC                     : No warppoints\nFormat settings, Matrix                  : Default (H.263)\nCodec ID                                 : XVID\nCodec ID/Hint                            : XviD\nDuration                                 : 1h 34mn\nSource duration                          : 1h 34mn\nBit rate                                 : 1 924 Kbps\nWidth                                    : 720 pixels\nHeight                                   : 304 pixels\nDisplay aspect ratio                     : 2.35:1\nFrame rate                               : 25.000 fps\nColor space                              : YUV\nChroma subsampling                       : 4:2:0\nBit depth                                : 8 bits\nScan type                                : Progressive\nCompression mode                         : Lossy\nBits/(Pixel*Frame)                       : 0.352\nStream size                              : 1.27 GiB (83%)\nWriting library                          : XviD 1.1.2 (UTC 2006-11-01)\n\nAudio:\n\nFormat                                   : AC-3\nFormat/Info                              : Audio Coding 3\nMode extension                           : CM (complete main)\nFormat settings, Endianness              : Big\nCodec ID                                 : 2000\nDuration                                 : 1h 34mn\nBit rate mode                            : Constant\nBit rate                                 : 384 Kbps\nChannel(s)                               : 6 channels\nChannel positions                        : Front: L C R, Side: L R, LFE\nSampling rate                            : 48.0 KHz\nBit depth                                : 16 bits\nCompression mode                         : Lossy\nStream size                              : 259 MiB (17%)\nAlignment                                : Aligned on interleaves\nInterleave, duration                     : 32 ms (0.80 video frame)\nInterleave, preload duration             : 1024 ms","torrent":{"xt":"urn:btih:086fcd1e317c04cdfcacc5820da340b252cc0e7a","amp;dn":"Snake+Eyes+1998+DVDrip+English+Klam","amp;tr":["udp%3A%2F%2Ftracker.openbittorrent.com%3A80","udp%3A%2F%2Fopen.demonii.com%3A1337","udp%3A%2F%2Ftracker.coppersurfer.tk%3A6969","udp%3A%2F%2Fexodus.desync.com%3A6969"],"infoHash":"086fcd1e317c04cdfcacc5820da340b252cc0e7a","infoHashBuffer":{"type":"Buffer","data":[8,111,205,30,49,124,4,205,252,172,197,130,13,163,64,178,82,204,14,122]},"announce":[],"urlList":[]}}